<svg width="1400" height="450" fill="none" xmlns="http://www.w3.org/2000/svg"><g clip-path="url(#clip0)"><path fill="#fff" d="M0 0h1400v450H0z"/><path fill="url(#paint0_linear)" fill-opacity=".5" d="M0 0h1400v450H0z"/><path d="M125.7 441.1h32.7c12 0 21-2.5 26.7-7.7 5.7-5.7 8.6-14.3 8.6-25.8v-26.7H-38.5v-77.4l246-332h116.9v322.6h85.1v86.8h-85.1v26.7c0 11.5 2.8 20 8.6 25.8 5.7 5.2 14.6 7.7 26.6 7.7h32.7V528H125.7v-86.9zm78.3-147V146l-109.2 148H204zm485.8 246.8c-84.8 0-148.2-24-190-72.2-41.3-48.8-62-121.9-62-219.3 0-97 20.7-169.5 62-217.6 41.8-48.2 105.2-72.3 190-72.3 86 0 149.7 24.1 191 72.3 41.2 48.1 61.9 120.7 61.9 217.6 0 97.4-20.7 170.5-62 219.3-41.2 48.1-104.9 72.2-190.9 72.2zm0-87.7c38.4 0 68-15.8 88.6-47.3 20.7-32.1 31-84.3 31-156.5 0-71.7-10.3-123.3-31-154.8a99.7 99.7 0 0 0-88.6-47.3 99 99 0 0 0-87.7 47.3c-20 31.5-30 83-30 154.8 0 72.2 10 124.4 30 156.5a99 99 0 0 0 87.7 47.3zm444.6-12h32.6c12 0 21-2.6 26.7-7.8 5.8-5.7 8.6-14.3 8.6-25.8v-26.7H970.1v-77.4l246-332h117v322.6h85v86.8h-85v26.7c0 11.5 2.8 20 8.5 25.8 5.8 5.2 14.7 7.7 26.7 7.7h32.7V528h-266.6v-86.9zm78.2-147.1V146l-109.2 148h109.2z" fill="#354E5C" fill-opacity=".3" style="mix-blend-mode:overlay"/><path d="M487.6 228.4h1c.5 0 .8-.1 1-.4.2-.2.4-.6.4-1v-13.3c0-1-.5-1.4-1.5-1.4h-.9v-3.6H501c2 0 3.7.5 4.8 1.6 1.2 1.1 1.8 2.7 1.8 4.7 0 1.1-.3 2.1-.9 3-.5 1-1.3 1.6-2.3 2.2a5.4 5.4 0 0 1 3.6 5.3c0 2-.7 3.5-1.9 4.7a6.5 6.5 0 0 1-4.8 1.8h-13.7v-3.6zm11.4-10a3 3 0 0 0 2.1-.7c.6-.5.9-1.3.9-2.3 0-1-.3-1.7-.8-2.3-.5-.5-1.2-.8-2.1-.8h-3.5v6.2h3.4zm.4 10a3 3 0 0 0 2.1-.8c.6-.5.9-1.3.9-2.4 0-2-1.1-3-3.3-3h-3.5v6.2h3.8zm16 4.1c-2.1 0-3.7-.4-4.7-1.2-1-.9-1.6-2.1-1.6-3.7 0-1.7.6-3 1.8-4a9.6 9.6 0 0 1 5.2-1.5l3.8-.2v-2c0-.8-.2-1.3-.5-1.6-.4-.4-1-.5-1.7-.5a4 4 0 0 0-2.2.7v1.3h-4.8v-3.6c2.2-1.3 4.6-2 7.2-2 2.6 0 4.6.5 5.8 1.7 1.3 1.1 2 2.6 2 4.5v6.7c0 .5 0 .8.2 1 .2.2.5.3.9.3h.5v3.6h-4.8l-.5-2.3c-.9 1-1.8 1.8-2.8 2.2-1 .4-2.2.6-3.9.6zm1.2-3.5c1.1 0 1.9-.2 2.5-.7.5-.5.8-1.1.8-2v-1.4l-3.3.2c-.8.1-1.4.3-1.8.6-.3.3-.5.8-.5 1.5 0 1.2.8 1.8 2.3 1.8zm20.3 3.5c-1.9 0-3.5-.3-5-1a8 8 0 0 1-3.4-3 9 9 0 0 1-1.3-5c0-3 .9-5.3 2.6-7a10 10 0 0 1 7.1-2.3c1.7 0 3 .2 4.2.6 1 .3 2.2 1 3.3 1.8v4h-4.8v-2a4 4 0 0 0-1.2-.5 7 7 0 0 0-1.5-.1c-1.2 0-2.2.5-3 1.4-.7 1-1 2.3-1 4.2 0 1.7.4 3 1.2 3.9 1 .8 2.2 1.2 3.9 1.2 1.9 0 3.4-.4 4.7-1.3l1.8 3c-1 .7-2.2 1.3-3.3 1.6-1 .4-2.5.5-4.3.5zm8.3-4h.8c.5 0 .8-.1 1-.3.2-.2.3-.6.3-1V213c0-.5-.1-.8-.3-1-.2-.2-.5-.3-1-.3h-.8v-3.5h9.5v3.5h-.9c-.4 0-.7 0-1 .3l-.2 1v8.2l3.5-3h-1.3v-3.5h9.6v3.5h-1.9c-.4 0-.7 0-.9.2-.2 0-.4.2-.6.4l-2.7 2.3 3.8 6.6c.1.3.3.5.5.6l1 .2h1.6v3.5h-6l-4.6-8-2 1.7v1.5c0 .4.1.8.3 1 .2.2.5.3 1 .3h1v3.5h-9.7v-3.5zm27.4 4c-2.5 0-4.4-.7-5.8-2.2-1.4-1.5-2-3.7-2-6.5 0-3.1.6-5.5 2-7.1 1.4-1.7 3.4-2.5 6-2.5 1.1 0 2.1.1 2.9.4.8.3 1.5.8 2.2 1.5v-2.8c0-.5 0-.8-.3-1-.2-.3-.5-.4-1-.4h-.6v-3.7h7.1v19c0 .5.1.8.3 1 .2.2.5.3 1 .3h.4v3.5h-5.6l-.3-2.3c-.8 1-1.7 1.7-2.7 2.1-1 .5-2.2.7-3.6.7zm1.4-3.3a3 3 0 0 0 2.7-1.4c.7-1 1-2.1 1-3.6v-1.7c0-1.5-.3-2.7-1-3.6-.5-.8-1.4-1.3-2.7-1.3-1.3 0-2.3.5-2.8 1.5-.6 1-.8 2.5-.8 4.6 0 2 .2 3.4.8 4.3.5.8 1.4 1.2 2.8 1.2zm12-.9h.7c.5 0 .8 0 1-.3.3-.2.4-.6.4-1v-7.3c0-.4-.1-.7-.3-1-.2-.2-.5-.3-1-.3h-.8v-3.7h6.8l.4 1.9c.4-.7 1-1.2 1.8-1.4a7 7 0 0 1 2.5-.5h2v3.7h-2.9c-1 0-1.7.2-2.2.7-.4.5-.6 1.2-.6 2.2v5.7c0 .5 0 .8.3 1 .2.2.5.3 1 .3h.7v3.7H586v-3.7zm23 4.2c-2.9 0-5.2-.7-6.8-2.3-1.6-1.6-2.4-3.9-2.4-6.8 0-3 .8-5.3 2.4-6.8 1.6-1.6 3.9-2.4 6.9-2.4 3 0 5.3.8 6.9 2.4 1.6 1.5 2.4 3.8 2.4 6.8s-.8 5.2-2.4 6.8c-1.6 1.6-4 2.3-7 2.3zm0-3.7c1.4 0 2.3-.4 2.9-1.3.6-.8.9-2.2.9-4.1 0-2-.3-3.4-1-4.2-.5-.9-1.4-1.3-2.7-1.3-1.3 0-2.2.4-2.8 1.3-.6.8-.9 2.3-.9 4.2a8 8 0 0 0 .9 4.1c.6.9 1.5 1.3 2.8 1.3zm10.5 7h.7c1 0 1.4-.4 1.4-1.4v-14.6c0-1-.4-1.4-1.4-1.4h-.5v-3.7h5.9l.4 2.5c1.4-2 3.4-3 6.1-3 2.5 0 4.4.8 5.8 2.3 1.5 1.6 2.2 3.8 2.2 6.7 0 3-.7 5.3-2 7-1.4 1.5-3.3 2.3-5.9 2.3-1.2 0-2.2-.1-3-.4-.8-.3-1.5-.7-2.3-1.4v3.8c0 .9.5 1.3 1.4 1.3h.7v3.7h-9.5v-3.7zm11.3-6.6c1.3 0 2.3-.5 2.9-1.4.5-1 .8-2.5.8-4.6 0-2-.3-3.5-.8-4.4-.6-.9-1.5-1.3-2.9-1.3-1.1 0-2 .4-2.7 1.4-.7.9-1 2-1 3.5v2c0 1.5.3 2.6 1 3.5.6.8 1.5 1.3 2.7 1.3zm21.6-.9h.7c1 0 1.4-.4 1.4-1.3v-7.2c0-.5-.1-.8-.3-1-.2-.3-.6-.4-1-.4h-.8v-3.7h5.7l.2 2.4c1.5-2 3.7-3 6.6-3 2.1 0 3.6.6 4.6 1.6 1 1 1.5 2.5 1.5 4.5v6.8c0 .9.4 1.3 1.4 1.3h.8v3.7h-8v-11.7c0-1-.1-1.6-.5-2-.4-.4-1-.6-1.8-.6s-1.5.2-2 .7c-.5.4-.7 1.1-.7 2v6.6c0 .5.1.8.3 1 .2.2.5.3 1 .3h.7v3.7h-9.8v-3.7zm23-15c0-2.2.4-3.7 1-4.7.8-1 2-1.4 3.5-1.4a5 5 0 0 1 1.8.2l1.7.8 1 .5c.3.2.6.2 1 .2 1 0 1.6-.6 1.6-1.7h3.8c0 2-.3 3.6-1 4.6-.7 1-1.8 1.4-3.3 1.4a6 6 0 0 1-1.9-.2l-1.7-.8a8 8 0 0 0-1-.5c-.4-.2-.7-.2-1-.2-1 0-1.6.6-1.6 1.7h-3.9zm4.8 19.2c-2 0-3.6-.4-4.7-1.2-1-.9-1.5-2.1-1.5-3.7 0-1.7.6-3 1.8-4a9.6 9.6 0 0 1 5.1-1.5l3.9-.2v-2c0-.8-.2-1.3-.5-1.6-.4-.4-1-.5-1.7-.5a4 4 0 0 0-2.3.7v1.3h-4.7v-3.6c2.2-1.3 4.6-2 7.2-2 2.6 0 4.5.5 5.8 1.7 1.3 1.1 1.9 2.6 1.9 4.5v6.7c0 .5 0 .8.2 1 .2.2.5.3 1 .3h.5v3.6h-4.8l-.5-2.3c-.9 1-1.8 1.8-2.8 2.2-1 .4-2.2.6-3.9.6zm1.3-3.5c1 0 1.9-.2 2.4-.7.6-.5.9-1.1.9-2v-1.4l-3.3.2c-.8.1-1.4.3-1.8.6-.3.3-.5.8-.5 1.5 0 1.2.8 1.8 2.3 1.8zm21.1 3.5c-3 0-5.2-.7-6.8-2.3-1.6-1.6-2.5-3.9-2.5-6.8 0-3 .8-5.3 2.4-6.8 1.6-1.6 4-2.4 7-2.4s5.3.8 6.8 2.4c1.6 1.5 2.4 3.8 2.4 6.8s-.8 5.2-2.4 6.8c-1.6 1.6-3.9 2.3-6.9 2.3zm0-3.7c1.3 0 2.3-.4 2.8-1.3.6-.8 1-2.2 1-4.1 0-2-.4-3.4-1-4.2-.5-.9-1.5-1.3-2.8-1.3-1.3 0-2.2.4-2.8 1.3-.5.8-.8 2.3-.8 4.2a8 8 0 0 0 .8 4.1c.6.9 1.5 1.3 2.8 1.3zm31.2 3.7c-3 0-5.4-.7-7-2.2-1.7-1.6-2.6-3.8-2.6-6.8 0-3.1.8-5.4 2.4-7 1.6-1.5 3.9-2.3 6.8-2.3 3 0 5 .8 6.6 2.4a8.7 8.7 0 0 1 2.2 6.3v1.7H730c0 1.5.3 2.7 1 3.4.6.7 1.6 1 3 1 1.2 0 2.2-.2 3-.5V227h4.7v3a9 9 0 0 1-3.2 1.8c-1.3.4-2.8.6-4.6.6zm2.8-11c0-1.2-.2-2.2-.8-2.8-.5-.6-1.4-1-2.4-1-1.2 0-2 .4-2.7 1-.5.7-.8 1.6-.8 2.8h6.7zm7.2 6.8h.6c1 0 1.5-.4 1.5-1.3v-7.2c0-.5-.1-.8-.3-1-.3-.3-.6-.4-1-.4h-.8v-3.7h5.6l.3 2.4c1.5-2 3.7-3 6.6-3 2 0 3.6.6 4.6 1.6 1 1 1.4 2.5 1.4 4.5v6.8c0 .9.5 1.3 1.4 1.3h.9v3.7h-8v-11.7c0-1-.1-1.6-.5-2-.4-.4-1-.6-1.8-.6-.9 0-1.5.2-2 .7-.5.4-.7 1.1-.7 2v6.6c0 .5 0 .8.3 1 .2.2.5.3 1 .3h.7v3.7h-9.8v-3.7zm31.6 4.2c-1.8 0-3.5-.3-5-1a8 8 0 0 1-3.4-3 9 9 0 0 1-1.3-5c0-3 .9-5.3 2.6-7a10 10 0 0 1 7.2-2.3c1.6 0 3 .2 4 .6 1.2.3 2.3 1 3.4 1.8v4h-4.7v-2a4 4 0 0 0-1.2-.5 7 7 0 0 0-1.6-.1c-1.2 0-2.2.5-3 1.4-.7 1-1 2.3-1 4.2 0 1.7.4 3 1.3 3.9.9.8 2.2 1.2 3.8 1.2 1.9 0 3.5-.4 4.7-1.3l1.9 3c-1.1.7-2.3 1.3-3.4 1.6-1 .4-2.5.5-4.3.5zm18.5 0c-3 0-5.3-.7-6.9-2.3-1.6-1.6-2.4-3.9-2.4-6.8 0-3 .8-5.3 2.4-6.8 1.6-1.6 3.9-2.4 6.9-2.4 3 0 5.3.8 7 2.4 1.5 1.5 2.3 3.8 2.3 6.8s-.8 5.2-2.4 6.8c-1.6 1.6-4 2.3-6.9 2.3zm0-3.7c1.3 0 2.2-.4 2.8-1.3.6-.8.9-2.2.9-4.1 0-2-.3-3.4-.9-4.2-.6-.9-1.5-1.3-2.8-1.3-1.3 0-2.2.4-2.8 1.3-.6.8-.8 2.3-.8 4.2a8 8 0 0 0 .8 4.1c.6.9 1.5 1.3 2.8 1.3zm10.8-.5h.7c1 0 1.4-.4 1.4-1.3v-7.2c0-.5-.1-.8-.3-1-.2-.3-.6-.4-1-.4h-.8v-3.7h5.7l.2 2.4c1.5-2 3.7-3 6.6-3 2.1 0 3.6.6 4.6 1.6 1 1 1.5 2.5 1.5 4.5v6.8c0 .9.4 1.3 1.4 1.3h.8v3.7h-8v-11.7c0-1-.1-1.6-.5-2-.4-.4-1-.6-1.8-.6s-1.5.2-2 .7c-.5.4-.7 1.1-.7 2v6.6c0 .5 0 .8.3 1 .2.2.5.3 1 .3h.7v3.7h-9.8v-3.7zm30.3 4.2c-2.4 0-4.3-.5-5.5-1.5-1.2-1.1-1.8-2.6-1.8-4.6v-8.1H825v-3.6h2.7v-3.5l5.7-1.6v5.1h4.7v3.6h-4.7v8.6c0 .7.1 1.3.5 1.6.3.4.8.5 1.4.5.8 0 1.4-.2 1.9-.6v-1.5h4.6v3.3a9.9 9.9 0 0 1-6.8 2.3zm7.2-4.2h.7c.5 0 .8 0 1-.3.3-.2.4-.6.4-1v-7.3c0-.4 0-.7-.3-1-.2-.2-.5-.3-1-.3h-.8v-3.7h6.8l.4 1.9c.5-.7 1-1.2 1.8-1.4a7 7 0 0 1 2.5-.5h2v3.7H853c-1 0-1.8.2-2.2.7-.5.5-.7 1.2-.7 2.2v5.7c0 .5.1.8.3 1 .2.2.6.3 1 .3h.7v3.7h-9.8v-3.7zm19.7 4.2c-2 0-3.6-.4-4.7-1.2-1-.9-1.5-2.1-1.5-3.7 0-1.7.5-3 1.7-4a9.6 9.6 0 0 1 5.2-1.5l3.8-.2v-2c0-.8-.1-1.3-.5-1.6-.3-.4-.9-.5-1.6-.5a4 4 0 0 0-2.3.7v1.3h-4.8v-3.6c2.2-1.3 4.7-2 7.3-2 2.6 0 4.5.5 5.7 1.7 1.3 1.1 2 2.6 2 4.5v6.7c0 .5 0 .8.2 1 .2.2.5.3.9.3h.5v3.6H869l-.5-2.3c-.8 1-1.7 1.8-2.7 2.2-1 .4-2.3.6-4 .6zm1.3-3.5c1 0 1.8-.2 2.4-.7.5-.5.8-1.1.8-2v-1.4l-3.2.2c-.9.1-1.5.3-1.8.6-.4.3-.5.8-.5 1.5 0 1.2.7 1.8 2.3 1.8zm18.7 3.5c-2.4 0-4.3-.7-5.7-2.2-1.4-1.5-2.1-3.7-2.1-6.5 0-3.1.7-5.5 2-7.1 1.4-1.7 3.4-2.5 6-2.5 1.2 0 2.2.1 3 .4.7.3 1.4.8 2.2 1.5v-2.8c0-.5-.1-.8-.4-1-.2-.3-.5-.4-1-.4h-.5v-3.7h7v19c0 .5.2.8.3 1 .2.2.6.3 1 .3h.5v3.5h-5.6l-.3-2.3c-.8 1-1.7 1.7-2.7 2.1-1 .5-2.2.7-3.7.7zm1.4-3.3a3 3 0 0 0 2.8-1.4c.6-1 1-2.1 1-3.6v-1.7c0-1.5-.4-2.7-1-3.6-.6-.8-1.5-1.3-2.7-1.3-1.4 0-2.3.5-2.9 1.5-.5 1-.8 2.5-.8 4.6 0 2 .3 3.4.8 4.3.5.8 1.5 1.2 2.8 1.2zm20.8 3.3c-3 0-5.3-.7-6.9-2.3-1.6-1.6-2.4-3.9-2.4-6.8 0-3 .8-5.3 2.4-6.8 1.6-1.6 3.9-2.4 6.9-2.4 3 0 5.3.8 6.9 2.4 1.6 1.5 2.4 3.8 2.4 6.8s-.8 5.2-2.4 6.8c-1.7 1.6-4 2.3-7 2.3zm0-3.7c1.3 0 2.2-.4 2.8-1.3.6-.8.9-2.2.9-4.1 0-2-.3-3.4-1-4.2-.5-.9-1.4-1.3-2.7-1.3-1.3 0-2.3.4-2.8 1.3-.6.8-.9 2.3-.9 4.2a8 8 0 0 0 .9 4.1c.5.9 1.5 1.3 2.8 1.3z" fill="#000" style="mix-blend-mode:overlay"/></g><defs><linearGradient id="paint0_linear" x2="91" y2="637" gradientUnits="userSpaceOnUse"><stop stop-color="#FF416E"/><stop offset="1" stop-color="#5855FF"/></linearGradient><clipPath id="clip0"><path fill="#fff" d="M0 0h1400v450H0z"/></clipPath></defs></svg>
