<svg width="300" height="450" fill="none" xmlns="http://www.w3.org/2000/svg"><g clip-path="url(#clip0)"><path fill="#fff" d="M0 0h300v450H0z"/><path fill="url(#paint0_linear)" fill-opacity=".5" d="M0 0h300v450H0z"/><path d="M43.8 370.4h.8c1 0 1.4-.5 1.4-1.4v-13.3c0-1-.5-1.4-1.4-1.4h-.8v-3.6h12.7c2.6 0 4.7.6 6.2 2 1.4 1.2 2.2 3 2.2 5.4 0 2.4-.8 4.3-2.3 5.7a9 9 0 0 1-6.1 2h-4.9v3.2c0 1 .5 1.4 1.5 1.4h.8v3.6H43.8v-3.6zm12-8.2c1.2 0 2-.4 2.6-1 .6-.7 1-1.7 1-3 0-1.4-.4-2.4-1-3-.5-.6-1.4-.9-2.7-.9h-4v7.9h4zM74 374.5c-3 0-5.3-.7-7-2.3-1.5-1.6-2.3-3.9-2.3-6.8 0-3 .8-5.3 2.4-6.8 1.5-1.6 3.8-2.4 6.9-2.4 3 0 5.3.8 6.9 2.4 1.6 1.5 2.4 3.8 2.4 6.8s-.8 5.2-2.5 6.8c-1.6 1.6-3.9 2.3-6.8 2.3zm0-3.7c1.3 0 2.2-.4 2.8-1.3.6-.8.8-2.2.8-4.1 0-2-.2-3.4-.8-4.2-.6-.9-1.5-1.3-2.8-1.3-1.3 0-2.3.4-2.8 1.3-.6.8-.9 2.3-.9 4.2a8 8 0 0 0 .9 4.1c.5.9 1.5 1.3 2.8 1.3zm17.7 3.7c-3.2 0-5.8-.7-7.9-2.3v-3h5.2v1.2c.6.3 1.4.5 2.4.5.8 0 1.4 0 1.8-.2.4-.3.6-.6.6-1.1 0-.5-.2-.9-.5-1.1l-2-1a76 76 0 0 1-4.9-2.2c-.7-.5-1.3-1-1.7-1.7-.5-.6-.7-1.4-.7-2.4 0-1.6.7-2.9 2-3.7a10 10 0 0 1 5.4-1.3c1.6 0 3 .2 4.3.6 1.4.3 2.5 1 3.5 1.7v3h-5v-1.1c-.5-.4-1.3-.6-2.2-.6-1.4 0-2.2.5-2.2 1.4 0 .6.3 1 .9 1.4l2.8 1.2.8.3c1.8.7 3.2 1.4 4 2.2.9.8 1.3 1.9 1.3 3.3 0 3.3-2.6 5-7.9 5zm18.5 0c-2.5 0-4.3-.5-5.6-1.5-1.2-1.1-1.8-2.6-1.8-4.6v-8.1h-2.6v-3.6h2.6v-3.5l5.7-1.6v5.1h4.7v3.6h-4.7v8.6c0 .7.2 1.3.5 1.6.3.4.8.5 1.5.5.8 0 1.4-.2 1.8-.6v-1.5h4.6v3.3a9.9 9.9 0 0 1-6.7 2.3zm15.5 0c-3 0-5.4-.7-7.1-2.2-1.7-1.6-2.5-3.8-2.5-6.8 0-3.1.8-5.4 2.4-7 1.6-1.5 3.8-2.3 6.8-2.3 2.9 0 5 .8 6.5 2.4a8.7 8.7 0 0 1 2.3 6.3v1.7h-12.4c0 1.5.4 2.7 1 3.4.7.7 1.7 1 3 1 1.2 0 2.2-.2 3-.5V369h4.8v3a9 9 0 0 1-3.3 1.8c-1.2.4-2.7.6-4.5.6zm2.8-11c0-1.2-.3-2.2-.8-2.8-.6-.6-1.4-1-2.5-1s-2 .4-2.6 1c-.6.7-.9 1.6-.9 2.8h6.8zm7.1 6.8h.7c.5 0 .9 0 1-.3.3-.2.4-.6.4-1v-7.3c0-.4 0-.7-.3-1-.2-.2-.5-.3-1-.3h-.7v-3.7h6.7l.5 1.9c.4-.7 1-1.2 1.8-1.4a7 7 0 0 1 2.4-.5h2.1v3.7h-3c-1 0-1.7.2-2.1.7-.4.5-.7 1.2-.7 2.2v5.7c0 .5.1.8.3 1 .2.2.6.3 1 .3h.8v3.7h-9.9v-3.7zm25.5 0h.7c1 0 1.5-.4 1.5-1.3v-7.2c0-.5-.1-.8-.4-1-.2-.3-.5-.4-1-.4h-.8v-3.7h5.7l.3 2.4c1.5-2 3.7-3 6.6-3 2 0 3.6.6 4.5 1.6 1 1 1.5 2.5 1.5 4.5v6.8c0 .9.5 1.3 1.4 1.3h.9v3.7h-8v-11.7c0-1-.2-1.6-.5-2-.4-.4-1-.6-1.8-.6-.9 0-1.5.2-2 .7-.5.4-.7 1.1-.7 2v6.6c0 .5 0 .8.2 1 .2.2.6.3 1 .3h.7v3.7h-9.8v-3.7zm23-15c0-2.2.4-3.7 1.1-4.7.8-1 2-1.4 3.5-1.4a5 5 0 0 1 1.8.2l1.6.8 1 .5c.4.2.7.2 1 .2 1 0 1.6-.6 1.6-1.7h4c0 2-.4 3.6-1.1 4.6-.7 1-1.8 1.4-3.4 1.4a6 6 0 0 1-1.8-.2l-1.7-.8a8 8 0 0 0-1.1-.5c-.3-.2-.6-.2-1-.2-1 0-1.5.6-1.5 1.7h-4zm4.9 19.2c-2 0-3.6-.4-4.7-1.2-1-.9-1.5-2.1-1.5-3.7 0-1.7.5-3 1.7-4a9.6 9.6 0 0 1 5.2-1.5l3.8-.2v-2c0-.8-.1-1.3-.5-1.6-.3-.4-.9-.5-1.6-.5a4 4 0 0 0-2.3.7v1.3h-4.8v-3.6c2.3-1.3 4.7-2 7.3-2 2.6 0 4.5.5 5.7 1.7 1.3 1.1 2 2.6 2 4.5v6.7c0 .5 0 .8.2 1 .2.2.5.3.9.3h.5v3.6h-4.7l-.6-2.3c-.8 1-1.7 1.8-2.7 2.2-1 .4-2.3.6-4 .6zm1.3-3.5c1 0 1.8-.2 2.4-.7.5-.5.8-1.1.8-2v-1.4l-3.2.2c-.9.1-1.5.3-1.8.6-.4.3-.5.8-.5 1.5 0 1.2.7 1.8 2.3 1.8zm21 3.5c-2.9 0-5.2-.7-6.8-2.3-1.6-1.6-2.4-3.9-2.4-6.8 0-3 .8-5.3 2.4-6.8 1.6-1.6 3.9-2.4 6.9-2.4 3 0 5.3.8 7 2.4 1.5 1.5 2.3 3.8 2.3 6.8s-.8 5.2-2.4 6.8c-1.6 1.6-4 2.3-7 2.3zm0-3.7c1.4 0 2.3-.4 2.9-1.3.6-.8.9-2.2.9-4.1 0-2-.3-3.4-.9-4.2-.6-.9-1.5-1.3-2.8-1.3-1.3 0-2.2.4-2.8 1.3-.6.8-.8 2.3-.8 4.2a8 8 0 0 0 .8 4.1c.6.9 1.5 1.3 2.8 1.3zm-158 35.7c-3 0-5.4-.7-7.1-2.2-1.7-1.6-2.5-3.8-2.5-6.8 0-3.1.7-5.4 2.3-7 1.6-1.5 4-2.3 6.9-2.3 2.9 0 5 .8 6.5 2.4a8.7 8.7 0 0 1 2.3 6.3v1.7H49.4c0 1.5.3 2.7 1 3.4.6.7 1.6 1 3 1 1.2 0 2.2-.2 3-.5V401h4.8v3a9 9 0 0 1-3.3 1.8c-1.2.4-2.8.6-4.5.6zm2.8-11c0-1.2-.3-2.2-.9-2.8-.5-.6-1.3-1-2.4-1-1.2 0-2 .4-2.6 1-.6.7-.9 1.6-.9 2.8h6.8zm7.1 6.8h.7c1 0 1.4-.4 1.4-1.3v-7.2c0-.5 0-.8-.3-1-.2-.3-.6-.4-1-.4h-.8v-3.7H69l.2 2.4c1.6-2 3.8-3 6.6-3 2.1 0 3.6.6 4.6 1.6 1 1 1.5 2.5 1.5 4.5v6.8c0 .9.4 1.3 1.4 1.3h.8v3.7h-8v-11.7c0-1-.1-1.6-.5-2-.3-.4-1-.6-1.7-.6-1 0-1.6.2-2 .7-.5.4-.8 1.1-.8 2v6.6c0 .5.1.8.3 1 .2.2.5.3 1 .3h.7v3.7h-9.8v-3.7zm31.7 4.2c-1.9 0-3.5-.3-5-1a8 8 0 0 1-3.5-3 9 9 0 0 1-1.2-5c0-3 .8-5.3 2.6-7a10 10 0 0 1 7.1-2.3c1.7 0 3 .2 4.1.6 1.2.3 2.3 1 3.3 1.8v4h-4.7v-2a4 4 0 0 0-1.2-.5 7 7 0 0 0-1.5-.1c-1.3 0-2.2.5-3 1.4-.7 1-1.1 2.3-1.1 4.2 0 1.7.4 3 1.3 3.9 1 .8 2.2 1.2 3.9 1.2 1.8 0 3.4-.4 4.7-1.3l1.8 3c-1.1.7-2.2 1.3-3.3 1.6-1.1.4-2.5.5-4.3.5zm18.4 0c-3 0-5.2-.7-6.8-2.3-1.6-1.6-2.4-3.9-2.4-6.8 0-3 .7-5.3 2.3-6.8 1.6-1.6 4-2.4 7-2.4s5.3.8 6.9 2.4c1.5 1.5 2.3 3.8 2.3 6.8s-.8 5.2-2.4 6.8c-1.6 1.6-3.9 2.3-6.9 2.3zm0-3.7c1.3 0 2.3-.4 2.8-1.3.6-.8 1-2.2 1-4.1 0-2-.4-3.4-1-4.2-.5-.9-1.5-1.3-2.8-1.3-1.3 0-2.2.4-2.8 1.3-.5.8-.8 2.3-.8 4.2a8 8 0 0 0 .8 4.1c.6.9 1.5 1.3 2.8 1.3zm10.8-.5h.7c1 0 1.5-.4 1.5-1.3v-7.2c0-.5-.2-.8-.4-1-.2-.3-.5-.4-1-.4h-.8v-3.7h5.7l.3 2.4c1.5-2 3.7-3 6.6-3 2 0 3.6.6 4.5 1.6 1 1 1.5 2.5 1.5 4.5v6.8c0 .9.5 1.3 1.4 1.3h.8v3.7h-7.9v-11.7c0-1-.2-1.6-.6-2-.3-.4-1-.6-1.7-.6-.9 0-1.6.2-2 .7-.5.4-.8 1.1-.8 2v6.6c0 .5.1.8.3 1 .2.2.5.3 1 .3h.7v3.7h-9.8v-3.7zm30.3 4.2c-2.4 0-4.2-.5-5.5-1.5-1.2-1.1-1.8-2.6-1.8-4.6v-8.1h-2.6v-3.6h2.6v-3.5l5.7-1.6v5.1h4.7v3.6H153v8.6c0 .7.2 1.3.5 1.6.3.4.8.5 1.5.5.8 0 1.4-.2 1.8-.6v-1.5h4.6v3.3a9.9 9.9 0 0 1-6.8 2.3zm7.2-4.2h.7c.5 0 .9 0 1.1-.3.2-.2.4-.6.4-1v-7.3c0-.4-.1-.7-.4-1-.2-.2-.5-.3-1-.3h-.7v-3.7h6.7l.5 1.9c.4-.7 1-1.2 1.8-1.4a7 7 0 0 1 2.4-.5h2.1v3.7h-2.9c-1 0-1.7.2-2.2.7-.4.5-.6 1.2-.6 2.2v5.7c0 .5 0 .8.2 1 .3.2.6.3 1 .3h.8v3.7h-9.9v-3.7zm19.7 4.2c-2 0-3.6-.4-4.7-1.2-1-.9-1.5-2.1-1.5-3.7 0-1.7.6-3 1.8-4a9.6 9.6 0 0 1 5.1-1.5l3.9-.2v-2c0-.8-.2-1.3-.5-1.6-.4-.4-1-.5-1.7-.5a4 4 0 0 0-2.3.7v1.3h-4.7v-3.6c2.2-1.3 4.6-2 7.2-2 2.6 0 4.5.5 5.8 1.7 1.2 1.1 1.9 2.6 1.9 4.5v6.7c0 .5 0 .8.2 1 .2.2.5.3 1 .3h.5v3.6h-4.8l-.5-2.3c-.9 1-1.8 1.8-2.8 2.2-1 .4-2.2.6-3.9.6zm1.3-3.5c1 0 1.9-.2 2.4-.7.6-.5.9-1.1.9-2v-1.4l-3.3.2c-.8.1-1.4.3-1.8.6-.3.3-.5.8-.5 1.5 0 1.2.8 1.8 2.3 1.8zm18.7 3.5c-2.4 0-4.3-.7-5.7-2.2-1.4-1.5-2-3.7-2-6.5 0-3.1.6-5.5 2-7.1 1.3-1.7 3.3-2.5 6-2.5 1.1 0 2.1.1 2.9.4.7.3 1.5.8 2.2 1.5v-2.8c0-.5-.1-.8-.3-1-.2-.3-.6-.4-1-.4h-.6v-3.7h7.1v19c0 .5.1.8.3 1 .2.2.5.3 1 .3h.4v3.5h-5.6l-.3-2.3c-.8 1-1.7 1.7-2.7 2.1-1 .5-2.2.7-3.7.7zm1.5-3.3a3 3 0 0 0 2.7-1.4c.6-1 1-2.1 1-3.6v-1.7c0-1.5-.3-2.7-1-3.6-.5-.8-1.5-1.3-2.7-1.3-1.3 0-2.3.5-2.8 1.5-.6 1-.9 2.5-.9 4.6 0 2 .3 3.4.8 4.3.6.8 1.5 1.2 2.9 1.2zm20.7 3.3c-3 0-5.2-.7-6.9-2.3-1.6-1.6-2.4-3.9-2.4-6.8 0-3 .8-5.3 2.4-6.8 1.6-1.6 3.9-2.4 7-2.4 3 0 5.3.8 6.8 2.4 1.6 1.5 2.4 3.8 2.4 6.8s-.8 5.2-2.4 6.8c-1.6 1.6-3.9 2.3-6.9 2.3zm0-3.7c1.3 0 2.3-.4 2.8-1.3.6-.8.9-2.2.9-4.1 0-2-.3-3.4-.9-4.2-.5-.9-1.5-1.3-2.8-1.3-1.3 0-2.2.4-2.8 1.3-.5.8-.8 2.3-.8 4.2a8 8 0 0 0 .8 4.1c.6.9 1.5 1.3 2.8 1.3z" fill="#000" style="mix-blend-mode:overlay"/><path d="M68.4 103.3H80c4.2 0 7.4-1 9.4-2.7 2-2 3-5.1 3-9.2V82h-82V54.7L97.2-62.7h41.3v114h30.1V82h-30v9.4c0 4 1 7.1 3 9.2 2 1.8 5.1 2.7 9.4 2.7h11.5V134H68.4v-30.7zm27.7-52V-1L57.5 51.3H96zm6.4 281.3c-30 0-52.4-8.6-67.2-25.6-14.6-17.2-22-43-22-77.5 0-34.2 7.4-59.9 22-77 14.8-17 37.2-25.4 67.2-25.4 30.4 0 52.9 8.5 67.4 25.5 14.6 17 22 42.7 22 76.9 0 34.5-7.4 60.3-22 77.5-14.5 17-37 25.6-67.4 25.6zm0-31c13.5 0 24-5.6 31.3-16.8 7.3-11.3 11-29.8 11-55.3 0-25.3-3.7-43.6-11-54.7a35.2 35.2 0 0 0-31.3-16.7 35 35 0 0 0-31 16.7c-7.1 11.1-10.7 29.4-10.7 54.7 0 25.5 3.6 44 10.6 55.3a35 35 0 0 0 31 16.8zm-34 188.7H80c4.2 0 7.4-1 9.4-2.7 2-2 3-5.1 3-9.2V469h-82v-27.3l86.9-117.4h41.3v114h30.1V469h-30v9.4c0 4 1 7.1 3 9.2 2 1.8 5.1 2.7 9.4 2.7h11.5V521H68.4v-30.7zm27.6-52V386l-38.6 52.3H96z" fill="#354E5C" fill-opacity=".7" style="mix-blend-mode:overlay"/></g><defs><linearGradient id="paint0_linear" x2="300" y2="450" gradientUnits="userSpaceOnUse"><stop stop-color="#FF416E"/><stop offset="1" stop-color="#5855FF"/></linearGradient><clipPath id="clip0"><path fill="#fff" d="M0 0h300v450H0z"/></clipPath></defs></svg>
