<svg version="1" xmlns="http://www.w3.org/2000/svg" width="666.667" height="666.667" viewBox="0 0 500.000000 500.000000"><path d="M94.5 1.1c-23 3.4-45.3 14.6-62 31.4C18.1 46.8 9 62.9 3.1 83.9L.5 93.5v313l2.6 9.6c5.8 20.8 15.2 37.3 29.3 51.4 14.4 14.4 30.5 23.5 51.5 29.4l9.6 2.6h313l9.6-2.6c20.8-5.8 37.3-15.2 51.4-29.3 14.4-14.4 23.5-30.5 29.4-51.5l2.6-9.6v-313l-2.6-9.6c-5.8-20.8-15.2-37.3-29.3-51.4C453.2 18.1 437.1 9 416.1 3.2L406.5.5l-153-.1c-84.1-.1-155.7.2-159 .7zm308 50.4c11.1 2.3 20.6 7.6 29.5 16.4 8.8 8.6 13 16 16.1 27.9 1.8 7.3 1.9 12.5 1.9 154.2s-.1 146.9-1.9 154.2c-1.1 4.2-3.4 10.4-5.2 13.9-4.4 8.8-16.1 20.3-25.6 25.2-12.6 6.5-14 6.7-78.8 6.7h-58.1l-1.2-5.9c-1.5-7.4-6.2-14.4-12.6-18.8-6.1-4.2-11.6-5.6-19.1-5-13.7 1-25 11.6-27.1 25.5l-.7 4.2h-58.6c-64.9 0-63.9.1-78-6.5-15-7.1-28.2-23.9-31.6-40.3-1.2-5.6-1.5-30.1-1.5-153.7C50 86.7 49.6 97.9 56.6 83 63.5 68.3 80.5 55.1 97 51.6c10-2.2 295.3-2.2 305.5-.1z"/><path d="M111.2 190.4c-5.9 1.9-10.7 5.8-13.9 11.4-2.3 3.9-2.8 5.9-2.8 11.7 0 6 .5 8.1 3.7 14.7 9.8 20.6 27.4 40.3 48.8 54.5 33.9 22.7 81.1 32.4 129.5 26.8 36.2-4.3 66.2-16.8 91.8-38.4 17.6-14.8 35.5-40.7 37.3-54.2 2.1-15.4-12-29.4-27.7-27.6-9.6 1.2-15.4 5.9-20.9 16.8-8.4 16.9-23.3 31.5-41.7 40.8-29.2 14.7-69.8 18.2-106 9.1-30.4-7.7-54-25.4-66.4-50.1-5.5-11.1-11.8-15.8-21.8-16.5-3.2-.2-7.5.2-9.9 1z"/></svg>